<svg version="1.2" xmlns="http://www.w3.org/2000/svg" viewBox="0 0 500 500" width="500" height="500">
	<title>facebook-svg</title>
	<style>
		.s0 { fill: #000000 } 
	</style>
	<path id="Layer" fill-rule="evenodd" class="s0" d="m83.3 146.3c0-34.8 28.2-63 63-63h207.4c34.8 0 63 28.2 63 63v207.4c0 34.8-28.2 63-63 63h-207.4c-34.8 0-63-28.2-63-63zm262.4 116.4l4.2-38.9h-35.4v-21.8c0-10.4 1-15.9 15.9-15.9h22.5v-38.8h-38.7c-38.3 0-51.8 19.3-51.8 51.8v24.8h-20.2v38.9h20.2v115.4h52.1v-115.4h31.2z"/>
</svg>