<svg version="1.2" xmlns="http://www.w3.org/2000/svg" viewBox="0 0 500 500" width="500" height="500">
	<title>instagram-svg</title>
	<style>
		.s0 { fill: #000000 } 
	</style>
	<path id="Layer" fill-rule="evenodd" class="s0" d="m250 83.3c45.3 0 51 0.2 68.7 1 17.8 0.8 29.9 3.7 40.5 7.8 10.9 4.2 20.2 9.9 29.5 19.2 9.3 9.3 14.9 18.6 19.2 29.5 4.1 10.6 6.9 22.7 7.8 40.5 0.8 17.8 1 23.4 1 68.7 0 45.3-0.2 50.9-1 68.7-0.8 17.8-3.7 29.9-7.8 40.5-4.3 10.9-9.9 20.2-19.2 29.5-9.3 9.3-18.6 14.9-29.5 19.2-10.6 4.1-22.7 6.9-40.5 7.8-17.8 0.8-23.4 1-68.7 1-45.3 0-50.9-0.2-68.7-1-17.8-0.9-29.9-3.7-40.5-7.8-10.9-4.3-20.2-9.9-29.5-19.2-9.3-9.3-15-18.6-19.2-29.5-4.1-10.6-6.9-22.7-7.8-40.5-0.8-17.8-1-23.4-1-68.7 0-45.3 0.2-50.9 1-68.7 0.9-17.8 3.7-29.9 7.8-40.5 4.2-10.9 9.9-20.2 19.2-29.5 9.3-9.3 18.6-15 29.5-19.2 10.6-4.1 22.7-6.9 40.5-7.8 17.8-0.8 23.4-1 68.7-1zm0 303.3c44.5 0 49.8-0.1 67.4-0.9 16.2-0.8 25-3.5 30.9-5.8 7.8-3 13.3-6.6 19.2-12.4 5.8-5.9 9.4-11.4 12.4-19.2 2.3-5.9 5-14.7 5.8-30.9 0.8-17.6 0.9-22.9 0.9-67.4 0-44.5-0.1-49.8-0.9-67.4-0.8-16.2-3.5-25-5.8-30.9-3-7.8-6.6-13.3-12.4-19.2-5.9-5.8-11.4-9.4-19.2-12.4-5.9-2.3-14.7-5-30.9-5.8-17.6-0.8-22.9-0.9-67.4-0.9-44.5 0-49.8 0.1-67.3 0.9-16.3 0.8-25.1 3.5-31 5.8-7.8 3-13.3 6.6-19.2 12.4-5.8 5.9-9.4 11.4-12.4 19.2-2.3 5.9-5 14.7-5.8 30.9-0.8 17.6-0.9 22.9-0.9 67.4 0 44.5 0.1 49.8 0.9 67.4 0.8 16.2 3.5 25 5.8 30.9 3 7.8 6.6 13.3 12.4 19.2 5.9 5.8 11.4 9.4 19.2 12.4 5.9 2.3 14.7 5 31 5.8 17.5 0.8 22.8 0.9 67.3 0.9zm89-205.6c-11.1 0-20-8.9-20-20 0-11 8.9-20 20-20 11 0 20 9 20 20 0 11.1-9 20-20 20zm-89 154.6c-47.3 0-85.6-38.3-85.6-85.6 0-47.3 38.3-85.6 85.6-85.6 47.3 0 85.6 38.3 85.6 85.6 0 47.3-38.3 85.6-85.6 85.6zm55.6-85.6c0-30.7-24.9-55.6-55.6-55.6-30.7 0-55.5 24.9-55.5 55.6 0 30.7 24.8 55.6 55.5 55.6 30.7 0 55.6-24.9 55.6-55.6z"/>
</svg>