<svg version="1.2" xmlns="http://www.w3.org/2000/svg" viewBox="0 0 500 500" width="500" height="500">
	<title>whatsapp-svg</title>
	<style>
		.s0 { fill: #000000 } 
	</style>
	<path id="Layer" fill-rule="evenodd" class="s0" d="m416.4 248.4c0 91.3-74.3 165.6-165.6 165.6h-0.1c-27.7 0-54.9-6.9-79.1-20.1l-87.8 23 23.5-85.8c-14.5-25.1-22.1-53.6-22.1-82.8 0-91.3 74.3-165.6 165.6-165.6 44.3 0 85.9 17.2 117.2 48.5 31.2 31.3 48.5 73 48.4 117.2zm-27.9 0c0-36.8-14.3-71.4-40.3-97.4-26-26-60.6-40.3-97.3-40.4-76 0-137.7 61.8-137.8 137.7 0 26 7.3 51.3 21.1 73.3l3.3 5.2-13.9 50.8 52.1-13.7 5 3c21.1 12.5 45.4 19.2 70.1 19.2 75.9 0 137.6-61.8 137.7-137.7zm-54.2 39.4c1 1.7 1 10-2.5 19.7-3.4 9.7-19.9 18.5-27.9 19.7-7.1 1-16.1 1.5-26.1-1.7-6-1.9-13.7-4.4-23.6-8.7-41.5-17.9-68.6-59.7-70.7-62.5-2-2.7-16.9-22.4-16.9-42.8 0-20.4 10.7-30.4 14.5-34.5 3.8-4.2 8.3-5.2 11.1-5.2 2.7 0 5.5 0 7.9 0.1 2.5 0.2 6-0.9 9.3 7.1 3.5 8.3 11.7 28.7 12.8 30.8 1 2 1.7 4.5 0.3 7.2-1.4 2.8-2.1 4.5-4.1 6.9-2.1 2.4-4.4 5.4-6.2 7.3-2.1 2-4.3 4.3-1.8 8.4 2.4 4.2 10.7 17.7 23 28.7 15.8 14.1 29.1 18.5 33.3 20.5 4.1 2.1 6.5 1.8 8.9-1 2.4-2.8 10.4-12.1 13.1-16.2 2.8-4.2 5.6-3.5 9.3-2.1 3.8 1.4 24.2 11.4 28.3 13.5 4.2 2 6.9 3.1 8 4.8z"/>
</svg>